# xmcd CD database file
#
# Track frame offsets:
#	150
#	11370
#	26157
#	38717
#	51472
#	66200
#	79180
#	90985
#	103630
#	118040
#	133547
#	148387
#	158360
#	171655
#	183645
#	194410
#	208327
#	218395
#	229940
#	246087
#
# Disc length: 3465 seconds
#
# Revision: 0
# Processed by: cddbd v1.5.2PL0 Copyright (c) Steve Scherf et al.
# Submitted via: CD2WAV32(JP) R3.22
#
DISCID=200d8714
DTITLE=ジミー時田 - カントリー
DYEAR=2005
DGENRE=Country
TTITLE0=ア・フール・サッチ・アズ・アイ
TTITLE1=ロンサム・ホイッスル
TTITLE2=クレージー・アームス
TTITLE3=フォルサム・プリズン・ブルース
TTITLE4=新聞売りのジミー少年
TTITLE5=キャンディー・キッセズ
TTITLE6=アイ・ドント・ハート・エニモア
TTITLE7=サン・アントニオ・ローズ
TTITLE8=サムデイ
TTITLE9=ハブ・アイ・トールド・ユー・レイタリー・ザット・アイ・ラブ・ユー
TTITLE10=ワイルドウッド・フラワー
TTITLE11=ザ・ゴールデン・ロケット
TTITLE12=テネシー・ワルツ
TTITLE13=ユア・チーティン・ハート
TTITLE14=ホンキー・トンク・ブルース
TTITLE15=泣きたいほどの淋しさだ
TTITLE16=ザ・ワイルド・サイド・オブ・ライフ
TTITLE17=バケツに穴があいたなら
TTITLE18=ユー・アー・マイ・サンシャイン
TTITLE19=グリーン･グリーン・グラス・オブ・ホーム
EXTD=
EXTT0=
EXTT1=
EXTT2=
EXTT3=
EXTT4=
EXTT5=
EXTT6=
EXTT7=
EXTT8=
EXTT9=
EXTT10=
EXTT11=
EXTT12=
EXTT13=
EXTT14=
EXTT15=
EXTT16=
EXTT17=
EXTT18=
EXTT19=
PLAYORDER=
